# xmcd
#
# Track frame offsets:
#	150
#	18471
#	38127
#	49816
#	69608
#	86005
#	103347
#	118808
#	136238
#	150459
#	163853
#	180731
#	195981
#	212511
#	226956
#
# Disc length: 3261 seconds
#
# Revision: 1
# Processed by: cddbd v1.5.2PL0 Copyright (c) Steve Scherf et al.
# Submitted via: audiograbber 1.83.01
#
DISCID=cb0cbb0f
DTITLE=Various Artist - 80152
DYEAR=2008
DGENRE=Country
TTITLE0=Garth Brooks - Friends In Low Places
TTITLE1=Travis Tritt - Put Some Drive In Your Country
TTITLE2=Ricky Van Shelton - I've Cried My Last Tear For You
TTITLE3=Dan Seals - Good Times
TTITLE4=Shenandoah - Next To You, Next To Me
TTITLE5=Alabama - Jukebox In My Mind
TTITLE6=Joe Diffie - Home
TTITLE7=George Strait - I've Come To Expect It From You
TTITLE8=Kentucky Headhunters - Dumas Walker
TTITLE9=Doug Stone - Fourteen Minutes Old
TTITLE10=Alan Jackson - Here In The Real World
TTITLE11=Doug Stone - I'd Be Better Off In A Pine Box
TTITLE12=Eddie Rabbitt - On Second Thought
TTITLE13=Alan Jackson - Chasin' That Neon Rainbow
TTITLE14=Garth Brooks - Dance, The
EXTD=
EXTT0=
EXTT1=
EXTT2=
EXTT3=
EXTT4=
EXTT5=
EXTT6=
EXTT7=
EXTT8=
EXTT9=
EXTT10=
EXTT11=
EXTT12=
EXTT13=
EXTT14=
PLAYORDER=
